<svg xmlns="http://www.w3.org/2000/svg" width="250" height="250" fill="none" viewBox="0 0 250 250">
<!-- SVG created with Arrow, by QuiverAI (https://quiver.ai) -->
  <path d="m237.8 101.1-36.66-32.22v-41.13c0-7.87-3.75-11.41-10.64-11.41h-14.58c-7.8 0-11.38 5.58-11.38 11.58v8.5l-27.87-24.4c-7.79-6.8-18.92-4.6-23.9 0.31l-101.2 89.13c-7.87 6.94-3.79 19.71 7.14 19.71h15.18v92.45c0 14.18 11.26 27.8 27.44 27.8h56.32c42.06-0.75 72.38-35.38 72.27-84.01-0.01-4.14-0.42-8.44-0.29-14.27 0.07-28.71-15.57-61.72-48.6-69.42-1.81-8.93-8.33-14.45-16.4-14.45h-8.17c-0.71-3.1-1.71-4.33-4.21-4.33h-1.65c-2.43 0-3.25 1.36-3.25 3.28v6.28h-16.32c-4.87 0-4.08 7.22-0.38 7.22h16.58v15.05h-16.58c-4.1 0-3.32 6.82 0 6.82h16.4v5.52c0 2.33 1.57 3.27 3.11 3.27h2.09c2.11 0 3.36-1.08 3.97-4.06h8.41c8.77 0 14.62-6.4 16.19-12.88 23.03 4.55 38.2 25.39 38.2 57.7 0 33.7-21.27 61.95-55.31 61.95-29.99 0-53.76-24.17-54.3-52.97-0.18-11.76 3.31-23.22 10.52-32.65 2.96-3.9-0.92-9.74-6.17-8.05-1.94 0.64-2.89 2.25-4.04 4.01-7.87 12.05-10.66 23.52-10.36 37.5 0.7 31.59 26.67 62.61 64.35 62.61 21.05 0 36.94-9.44 47.68-20.5-10.74 21.96-27.49 35.46-55.36 35.46h-54.33c-10.11 0-16.41-7.55-16.41-16.57v-97.08c0-3.93-1.74-6.02-6.01-6.02h-20.21c-1.64 0-1.46-1.35-0.2-2.61l100.1-88.57c3.75-3.31 8.3-2.23 11.81 1.08l35.39 31.1c3.98 3.67 8.5 0.65 8.5-3.09v-20.82c0-0.83 0.3-1.03 1.07-1.03h13.13c0.83 0 1.07 0.28 1.07 1.28v42.75c0 2.5 0.74 3.8 2.93 5.87l38.46 32.16c1.39 1.23 1.25 2.12-0.58 2.12h-20.82c-4.14 0-5.16 3.27-5.16 7.35v94.65c0 9.31-6.94 17.31-16.5 16.9h-20.22c-1.08 0-1.8 0.35-2.63 0.99-5.45 4.73-8.25 7.06-15.43 10.46h36.92c16.31 0 27.41-12.3 27.41-28v-92.25h16.87c9.98 0 15.13-12.22 6.61-20.07z" fill="url(#paint0_linear_1_134)"/>
  <path d="m102.8 155.3 32.44-45.22-8.28 32h19.18l-32.07 44.71 7.52-31.49h-18.79z" fill="url(#paint1_linear_1_134)"/>
  <defs>
    <linearGradient id="paint0_linear_1_134" x1="8" x2="242" y1="125" y2="125" gradientUnits="userSpaceOnUse">
      <stop stop-color="#0075C9" offset="0"/>
      <stop stop-color="#1B82C2" offset=".13"/>
      <stop stop-color="#6199B1" offset=".39"/>
      <stop stop-color="#D1B992" offset=".78"/>
      <stop stop-color="#FF9533" offset="1"/>
    </linearGradient>
    <linearGradient id="paint1_linear_1_134" x1="112.6" x2="132.1" y1="181" y2="112" gradientUnits="userSpaceOnUse">
      <stop stop-color="#0075C9" offset="0"/>
      <stop stop-color="#1B82C2" offset=".13"/>
      <stop stop-color="#6199B1" offset=".39"/>
      <stop stop-color="#D1B992" offset=".78"/>
      <stop stop-color="#FF9533" offset="1"/>
    </linearGradient>
  </defs>
</svg>